<mxfile host="www.draw.io" modified="2019-12-11T07:23:46.154Z" agent="Mozilla/5.0 (Windows NT 10.0; Win64; x64) AppleWebKit/537.36 (KHTML, like Gecko) Chrome/78.0.3904.108 Safari/537.36" etag="rVhA5KztYQinNsV1DWJL" version="12.3.9" type="github" pages="1">
  <diagram id="VXYnYvM59xX0g_2VQlXp" name="Page-1">
    <mxGraphModel dx="782" dy="437" grid="1" gridSize="10" guides="1" tooltips="1" connect="1" arrows="0" fold="1" page="1" pageScale="1" pageWidth="827" pageHeight="1169" math="0" shadow="0">
      <root>
        <mxCell id="0"/>
        <mxCell id="1" parent="0"/>
        <mxCell id="7u2s9_BPq0nORUwGXpA5-1" value="Student" style="swimlane;childLayout=stackLayout;horizontal=1;startSize=30;horizontalStack=0;fillColor=#008cff;fontColor=#FFFFFF;rounded=1;fontSize=14;fontStyle=0;strokeWidth=2;resizeParent=0;resizeLast=1;shadow=0;dashed=0;align=center;" parent="1" vertex="1">
          <mxGeometry x="20" y="20" width="160" height="120" as="geometry"/>
        </mxCell>
        <mxCell id="7u2s9_BPq0nORUwGXpA5-2" value="name&#xa;email&#xa;dateRegistered" style="align=left;strokeColor=none;fillColor=none;spacingLeft=4;fontSize=12;verticalAlign=top;resizable=0;rotatable=0;part=1;" parent="7u2s9_BPq0nORUwGXpA5-1" vertex="1">
          <mxGeometry y="30" width="160" height="90" as="geometry"/>
        </mxCell>
        <mxCell id="7u2s9_BPq0nORUwGXpA5-5" value="Course" style="swimlane;childLayout=stackLayout;horizontal=1;startSize=30;horizontalStack=0;fillColor=#008cff;fontColor=#FFFFFF;rounded=1;fontSize=14;fontStyle=0;strokeWidth=2;resizeParent=0;resizeLast=1;shadow=0;dashed=0;align=center;" parent="1" vertex="1">
          <mxGeometry x="320" y="20" width="160" height="120" as="geometry"/>
        </mxCell>
        <mxCell id="7u2s9_BPq0nORUwGXpA5-6" value="title&#xa;price&#xa;instructor&#xa;tags" style="align=left;strokeColor=none;fillColor=none;spacingLeft=4;fontSize=12;verticalAlign=top;resizable=0;rotatable=0;part=1;" parent="7u2s9_BPq0nORUwGXpA5-5" vertex="1">
          <mxGeometry y="30" width="160" height="90" as="geometry"/>
        </mxCell>
        <mxCell id="7u2s9_BPq0nORUwGXpA5-7" value="" style="edgeStyle=entityRelationEdgeStyle;fontSize=12;html=1;endArrow=ERmany;startArrow=ERmany;entryX=0;entryY=0.5;entryDx=0;entryDy=0;exitX=1;exitY=0.5;exitDx=0;exitDy=0;" parent="1" source="7u2s9_BPq0nORUwGXpA5-2" target="7u2s9_BPq0nORUwGXpA5-6" edge="1">
          <mxGeometry width="100" height="100" relative="1" as="geometry">
            <mxPoint x="210" y="270" as="sourcePoint"/>
            <mxPoint x="310" y="170" as="targetPoint"/>
          </mxGeometry>
        </mxCell>
        <mxCell id="7u2s9_BPq0nORUwGXpA5-8" value="Enrolls" style="text;html=1;align=center;verticalAlign=middle;resizable=0;points=[];;labelBackgroundColor=#ffffff;" parent="7u2s9_BPq0nORUwGXpA5-7" vertex="1" connectable="0">
          <mxGeometry x="0.0238" y="-1" relative="1" as="geometry">
            <mxPoint as="offset"/>
          </mxGeometry>
        </mxCell>
      </root>
    </mxGraphModel>
  </diagram>
</mxfile>
